<svg width="81" height="92" viewBox="0 0 81 92" fill="none" xmlns="http://www.w3.org/2000/svg">
<path d="M80.5003 76.6033C75.2224 82.4386 68.5304 86.8161 61.0692 89.3137C53.608 91.8113 45.6293 92.345 37.902 90.8631C30.1746 89.3813 22.9593 85.934 16.9513 80.8535C10.9434 75.773 6.34536 69.2306 3.60047 61.8568C0.855579 54.483 0.0563556 46.5265 1.27983 38.7541C2.5033 30.9817 5.70821 23.6555 10.5857 17.4815C15.4632 11.3076 21.8487 6.4941 29.1269 3.505C36.4052 0.515899 44.3306 -0.548036 52.1395 0.415737L50.7368 11.781C44.8801 11.0582 38.936 11.8561 33.4774 14.0979C28.0187 16.3398 23.2295 19.9499 19.5714 24.5803C15.9133 29.2108 13.5096 34.7055 12.592 40.5348C11.6744 46.3641 12.2738 52.3315 14.3325 57.8618C16.3912 63.3922 19.8397 68.299 24.3457 72.1094C28.8516 75.9197 34.2631 78.5052 40.0586 79.6166C45.8541 80.7279 51.8382 80.3277 57.4341 78.4545C63.0299 76.5813 68.049 73.2982 72.0074 68.9217L80.5003 76.6033Z" fill="#F3F3F3"/>
</svg>
