<svg width="47" height="79" viewBox="0 0 47 79" fill="none" xmlns="http://www.w3.org/2000/svg">
<path d="M0.528664 5.79655C0.528664 2.63431 3.10213 0.0339127 6.2397 0.428175C13.5916 1.352 20.64 4.05011 26.761 8.32612C34.4532 13.6998 40.3095 21.3061 43.538 30.1165C46.7665 38.9268 47.2113 48.5161 44.8124 57.5876C42.9035 64.8061 39.2672 71.4195 34.2528 76.8748C32.1129 79.203 28.4685 78.881 26.4253 76.4675C24.3821 74.0539 24.7271 70.4669 26.7682 68.0516C30.0417 64.178 32.4328 59.6085 33.7415 54.6599C35.5406 47.8563 35.207 40.6643 32.7857 34.0565C30.3643 27.4488 25.9721 21.744 20.2029 17.7138C16.0067 14.7824 11.2293 12.8397 6.22807 11.9983C3.10965 11.4737 0.528664 8.9588 0.528664 5.79655Z" fill="#D3ED68"/>
</svg>
