<svg width="32" height="54" viewBox="0 0 32 54" fill="none" xmlns="http://www.w3.org/2000/svg">
<path d="M0.5124 3.74135C0.5124 1.5862 2.2663 -0.186072 4.40457 0.0831179C9.40917 0.713154 14.2071 2.5518 18.3739 5.46531C23.6114 9.12757 27.599 14.3115 29.7972 20.316C31.9955 26.3204 32.2984 32.8558 30.6649 39.0382C29.3655 43.9565 26.8905 48.4626 23.4776 52.18C22.0198 53.768 19.5351 53.5485 18.143 51.9026C16.7527 50.2588 16.9876 47.817 18.3767 46.1721C20.6066 43.5317 22.2355 40.4166 23.1268 37.0429C24.3519 32.4061 24.1247 27.5046 22.476 23.0012C20.8273 18.4979 17.8367 14.6099 13.9085 11.8632C11.0523 9.86609 7.80063 8.54235 4.39662 7.96861C2.27145 7.61041 0.5124 5.8965 0.5124 3.74135Z" fill="#D3ED68"/>
</svg>
